%TF.GenerationSoftware,KiCad,Pcbnew,9.0.7*%
%TF.CreationDate,2026-01-26T12:43:18+01:00*%
%TF.ProjectId,Usb_a-to-pinhead,5573625f-612d-4746-9f2d-70696e686561,rev?*%
%TF.SameCoordinates,Original*%
%TF.FileFunction,Copper,L2,Bot*%
%TF.FilePolarity,Positive*%
%FSLAX46Y46*%
G04 Gerber Fmt 4.6, Leading zero omitted, Abs format (unit mm)*
G04 Created by KiCad (PCBNEW 9.0.7) date 2026-01-26 12:43:18*
%MOMM*%
%LPD*%
G01*
G04 APERTURE LIST*
%TA.AperFunction,ComponentPad*%
%ADD10R,1.700000X1.700000*%
%TD*%
%TA.AperFunction,ComponentPad*%
%ADD11C,1.700000*%
%TD*%
%TA.AperFunction,ComponentPad*%
%ADD12R,1.500000X1.600000*%
%TD*%
%TA.AperFunction,ComponentPad*%
%ADD13C,1.600000*%
%TD*%
%TA.AperFunction,ComponentPad*%
%ADD14C,3.000000*%
%TD*%
G04 APERTURE END LIST*
D10*
%TO.P,J2,1,Pin_1*%
%TO.N,GND*%
X144500000Y-87500000D03*
D11*
%TO.P,J2,2,Pin_2*%
%TO.N,+5V*%
X144500000Y-84960000D03*
%TD*%
D12*
%TO.P,J1,1,VBUS*%
%TO.N,+5V*%
X124860000Y-83000000D03*
D13*
%TO.P,J1,2,D-*%
%TO.N,unconnected-(J1-D--Pad2)*%
X124860000Y-85500000D03*
%TO.P,J1,3,D+*%
%TO.N,unconnected-(J1-D+-Pad3)*%
X124860000Y-87500000D03*
%TO.P,J1,4,GND*%
%TO.N,GND*%
X124860000Y-90000000D03*
D14*
%TO.P,J1,5,Shield*%
X122150000Y-79930000D03*
X122150000Y-93070000D03*
%TD*%
%TA.AperFunction,Conductor*%
%TO.N,GND*%
G36*
X121096259Y-78020185D02*
G01*
X121142014Y-78072989D01*
X121151958Y-78142147D01*
X121122933Y-78205703D01*
X121091220Y-78231887D01*
X121036471Y-78263496D01*
X120923633Y-78350079D01*
X120923633Y-78350080D01*
X121531466Y-78957913D01*
X121400825Y-79052829D01*
X121272829Y-79180825D01*
X121177913Y-79311466D01*
X120570080Y-78703633D01*
X120570079Y-78703633D01*
X120483496Y-78816471D01*
X120352409Y-79043517D01*
X120352404Y-79043528D01*
X120252075Y-79285744D01*
X120184222Y-79538979D01*
X120184220Y-79538990D01*
X120150000Y-79798905D01*
X120150000Y-80061094D01*
X120184220Y-80321009D01*
X120184222Y-80321020D01*
X120252075Y-80574255D01*
X120352404Y-80816471D01*
X120352409Y-80816482D01*
X120483488Y-81043516D01*
X120483494Y-81043524D01*
X120570080Y-81156365D01*
X121177912Y-80548532D01*
X121272829Y-80679175D01*
X121400825Y-80807171D01*
X121531465Y-80902086D01*
X120923633Y-81509917D01*
X120923633Y-81509918D01*
X121036475Y-81596505D01*
X121036483Y-81596511D01*
X121263517Y-81727590D01*
X121263528Y-81727595D01*
X121505744Y-81827924D01*
X121758979Y-81895777D01*
X121758990Y-81895779D01*
X122018905Y-81929999D01*
X122018920Y-81930000D01*
X122281080Y-81930000D01*
X122281094Y-81929999D01*
X122541009Y-81895779D01*
X122541020Y-81895777D01*
X122794255Y-81827924D01*
X123036471Y-81727595D01*
X123036482Y-81727590D01*
X123263516Y-81596511D01*
X123263534Y-81596499D01*
X123376365Y-81509919D01*
X123376365Y-81509917D01*
X122768534Y-80902086D01*
X122899175Y-80807171D01*
X123027171Y-80679175D01*
X123122086Y-80548534D01*
X123729917Y-81156365D01*
X123729919Y-81156365D01*
X123816499Y-81043534D01*
X123816511Y-81043516D01*
X123947590Y-80816482D01*
X123947595Y-80816471D01*
X124047924Y-80574255D01*
X124115777Y-80321020D01*
X124115779Y-80321009D01*
X124149999Y-80061094D01*
X124150000Y-80061080D01*
X124150000Y-79798919D01*
X124149999Y-79798905D01*
X124115779Y-79538990D01*
X124115777Y-79538979D01*
X124047924Y-79285744D01*
X123947595Y-79043528D01*
X123947590Y-79043517D01*
X123816511Y-78816483D01*
X123816505Y-78816475D01*
X123729918Y-78703633D01*
X123729917Y-78703633D01*
X123122085Y-79311465D01*
X123027171Y-79180825D01*
X122899175Y-79052829D01*
X122768532Y-78957912D01*
X123376365Y-78350080D01*
X123263524Y-78263494D01*
X123263516Y-78263488D01*
X123208781Y-78231887D01*
X123160565Y-78181320D01*
X123147343Y-78112713D01*
X123173311Y-78047848D01*
X123230225Y-78007320D01*
X123270781Y-78000500D01*
X148225225Y-78000500D01*
X148292264Y-78020185D01*
X148338019Y-78072989D01*
X148349225Y-78124500D01*
X148349225Y-94875500D01*
X148329540Y-94942539D01*
X148276736Y-94988294D01*
X148225225Y-94999500D01*
X123270781Y-94999500D01*
X123203742Y-94979815D01*
X123157987Y-94927011D01*
X123148043Y-94857853D01*
X123177068Y-94794297D01*
X123208781Y-94768113D01*
X123263516Y-94736511D01*
X123263534Y-94736499D01*
X123376365Y-94649919D01*
X123376365Y-94649917D01*
X122768534Y-94042086D01*
X122899175Y-93947171D01*
X123027171Y-93819175D01*
X123122086Y-93688534D01*
X123729917Y-94296365D01*
X123729919Y-94296365D01*
X123816499Y-94183534D01*
X123816511Y-94183516D01*
X123947590Y-93956482D01*
X123947595Y-93956471D01*
X124047924Y-93714255D01*
X124115777Y-93461020D01*
X124115779Y-93461009D01*
X124149999Y-93201094D01*
X124150000Y-93201080D01*
X124150000Y-92938919D01*
X124149999Y-92938905D01*
X124115779Y-92678990D01*
X124115777Y-92678979D01*
X124047924Y-92425744D01*
X123947595Y-92183528D01*
X123947590Y-92183517D01*
X123816511Y-91956483D01*
X123816505Y-91956475D01*
X123729918Y-91843633D01*
X123729917Y-91843633D01*
X123122085Y-92451465D01*
X123027171Y-92320825D01*
X122899175Y-92192829D01*
X122768532Y-92097912D01*
X123376365Y-91490080D01*
X123263524Y-91403494D01*
X123263516Y-91403488D01*
X123036482Y-91272409D01*
X123036471Y-91272404D01*
X122794255Y-91172075D01*
X122719294Y-91151990D01*
X122541020Y-91104222D01*
X122541009Y-91104220D01*
X122281094Y-91070000D01*
X122018905Y-91070000D01*
X121758990Y-91104220D01*
X121758979Y-91104222D01*
X121505744Y-91172075D01*
X121263528Y-91272404D01*
X121263517Y-91272409D01*
X121036471Y-91403496D01*
X120923633Y-91490079D01*
X120923633Y-91490080D01*
X121531466Y-92097913D01*
X121400825Y-92192829D01*
X121272829Y-92320825D01*
X121177913Y-92451466D01*
X120570080Y-91843633D01*
X120570079Y-91843633D01*
X120483496Y-91956471D01*
X120352409Y-92183517D01*
X120352404Y-92183528D01*
X120252075Y-92425744D01*
X120184222Y-92678979D01*
X120184220Y-92678990D01*
X120150000Y-92938905D01*
X120150000Y-93201094D01*
X120184220Y-93461009D01*
X120184222Y-93461020D01*
X120252075Y-93714255D01*
X120352404Y-93956471D01*
X120352409Y-93956482D01*
X120483488Y-94183516D01*
X120483494Y-94183524D01*
X120570080Y-94296365D01*
X121177912Y-93688532D01*
X121272829Y-93819175D01*
X121400825Y-93947171D01*
X121531465Y-94042086D01*
X120923633Y-94649917D01*
X120923633Y-94649918D01*
X121036475Y-94736505D01*
X121036483Y-94736511D01*
X121091219Y-94768113D01*
X121139435Y-94818680D01*
X121152657Y-94887287D01*
X121126689Y-94952152D01*
X121069775Y-94992680D01*
X121029219Y-94999500D01*
X114801836Y-94999500D01*
X114734797Y-94979815D01*
X114689042Y-94927011D01*
X114677836Y-94875500D01*
X114677836Y-85397648D01*
X123559500Y-85397648D01*
X123559500Y-85602351D01*
X123591522Y-85804534D01*
X123654781Y-85999223D01*
X123747715Y-86181613D01*
X123868028Y-86347213D01*
X123933134Y-86412319D01*
X123966619Y-86473642D01*
X123961635Y-86543334D01*
X123933134Y-86587681D01*
X123868032Y-86652782D01*
X123868028Y-86652786D01*
X123747715Y-86818386D01*
X123654781Y-87000776D01*
X123591522Y-87195465D01*
X123559500Y-87397648D01*
X123559500Y-87602351D01*
X123591522Y-87804534D01*
X123654781Y-87999223D01*
X123747715Y-88181613D01*
X123868028Y-88347213D01*
X124012786Y-88491971D01*
X124178385Y-88612284D01*
X124178387Y-88612285D01*
X124178390Y-88612287D01*
X124232378Y-88639795D01*
X124283174Y-88687769D01*
X124299969Y-88755590D01*
X124277432Y-88821725D01*
X124232378Y-88860765D01*
X124178644Y-88888143D01*
X124134077Y-88920523D01*
X124134077Y-88920524D01*
X124751003Y-89537449D01*
X124676657Y-89557370D01*
X124568343Y-89619905D01*
X124479905Y-89708343D01*
X124417370Y-89816657D01*
X124397449Y-89891002D01*
X123780524Y-89274077D01*
X123780523Y-89274077D01*
X123748143Y-89318644D01*
X123655244Y-89500968D01*
X123592009Y-89695582D01*
X123560000Y-89897682D01*
X123560000Y-90102317D01*
X123592009Y-90304417D01*
X123655244Y-90499031D01*
X123748141Y-90681350D01*
X123748147Y-90681359D01*
X123780523Y-90725921D01*
X123780524Y-90725922D01*
X124397449Y-90108997D01*
X124417370Y-90183343D01*
X124479905Y-90291657D01*
X124568343Y-90380095D01*
X124676657Y-90442630D01*
X124751002Y-90462550D01*
X124134076Y-91079474D01*
X124178650Y-91111859D01*
X124360968Y-91204755D01*
X124555582Y-91267990D01*
X124757683Y-91300000D01*
X124962317Y-91300000D01*
X125164417Y-91267990D01*
X125359031Y-91204755D01*
X125541349Y-91111859D01*
X125585921Y-91079474D01*
X124968997Y-90462550D01*
X125043343Y-90442630D01*
X125151657Y-90380095D01*
X125240095Y-90291657D01*
X125302630Y-90183343D01*
X125322550Y-90108998D01*
X125939474Y-90725922D01*
X125939474Y-90725921D01*
X125971859Y-90681349D01*
X126064755Y-90499031D01*
X126127990Y-90304417D01*
X126160000Y-90102317D01*
X126160000Y-89897682D01*
X126127990Y-89695582D01*
X126064755Y-89500968D01*
X125971859Y-89318650D01*
X125939474Y-89274077D01*
X125939474Y-89274076D01*
X125322550Y-89891001D01*
X125302630Y-89816657D01*
X125240095Y-89708343D01*
X125151657Y-89619905D01*
X125043343Y-89557370D01*
X124968996Y-89537449D01*
X125585922Y-88920524D01*
X125585921Y-88920523D01*
X125541359Y-88888147D01*
X125541350Y-88888141D01*
X125487621Y-88860765D01*
X125436825Y-88812791D01*
X125420030Y-88744970D01*
X125442567Y-88678835D01*
X125487621Y-88639795D01*
X125541610Y-88612287D01*
X125591144Y-88576298D01*
X125707213Y-88491971D01*
X125707215Y-88491968D01*
X125707219Y-88491966D01*
X125851966Y-88347219D01*
X125851968Y-88347215D01*
X125851971Y-88347213D01*
X125904732Y-88274590D01*
X125972287Y-88181610D01*
X126065220Y-87999219D01*
X126128477Y-87804534D01*
X126148322Y-87679240D01*
X126160500Y-87602351D01*
X126160500Y-87397648D01*
X126128477Y-87195465D01*
X126065218Y-87000776D01*
X126031503Y-86934607D01*
X125972287Y-86818390D01*
X125964556Y-86807749D01*
X125851971Y-86652786D01*
X125786866Y-86587681D01*
X125753381Y-86526358D01*
X125758365Y-86456666D01*
X125786866Y-86412319D01*
X125791279Y-86407906D01*
X125851966Y-86347219D01*
X125851968Y-86347215D01*
X125851971Y-86347213D01*
X125954097Y-86206646D01*
X125972287Y-86181610D01*
X126065220Y-85999219D01*
X126128477Y-85804534D01*
X126160500Y-85602352D01*
X126160500Y-85397648D01*
X126128477Y-85195466D01*
X126065220Y-85000781D01*
X126065218Y-85000778D01*
X126065218Y-85000776D01*
X126016486Y-84905136D01*
X125990285Y-84853713D01*
X143149500Y-84853713D01*
X143149500Y-85066286D01*
X143182753Y-85276239D01*
X143248444Y-85478414D01*
X143344951Y-85667820D01*
X143469890Y-85839786D01*
X143583818Y-85953714D01*
X143617303Y-86015037D01*
X143612319Y-86084729D01*
X143570447Y-86140662D01*
X143539471Y-86157577D01*
X143407912Y-86206646D01*
X143407906Y-86206649D01*
X143292812Y-86292809D01*
X143292809Y-86292812D01*
X143206649Y-86407906D01*
X143206645Y-86407913D01*
X143156403Y-86542620D01*
X143156401Y-86542627D01*
X143150000Y-86602155D01*
X143150000Y-87250000D01*
X144066988Y-87250000D01*
X144034075Y-87307007D01*
X144000000Y-87434174D01*
X144000000Y-87565826D01*
X144034075Y-87692993D01*
X144066988Y-87750000D01*
X143150000Y-87750000D01*
X143150000Y-88397844D01*
X143156401Y-88457372D01*
X143156403Y-88457379D01*
X143206645Y-88592086D01*
X143206649Y-88592093D01*
X143292809Y-88707187D01*
X143292812Y-88707190D01*
X143407906Y-88793350D01*
X143407913Y-88793354D01*
X143542620Y-88843596D01*
X143542627Y-88843598D01*
X143602155Y-88849999D01*
X143602172Y-88850000D01*
X144250000Y-88850000D01*
X144250000Y-87933012D01*
X144307007Y-87965925D01*
X144434174Y-88000000D01*
X144565826Y-88000000D01*
X144692993Y-87965925D01*
X144750000Y-87933012D01*
X144750000Y-88850000D01*
X145397828Y-88850000D01*
X145397844Y-88849999D01*
X145457372Y-88843598D01*
X145457379Y-88843596D01*
X145592086Y-88793354D01*
X145592093Y-88793350D01*
X145707187Y-88707190D01*
X145707190Y-88707187D01*
X145793350Y-88592093D01*
X145793354Y-88592086D01*
X145843596Y-88457379D01*
X145843598Y-88457372D01*
X145849999Y-88397844D01*
X145850000Y-88397827D01*
X145850000Y-87750000D01*
X144933012Y-87750000D01*
X144965925Y-87692993D01*
X145000000Y-87565826D01*
X145000000Y-87434174D01*
X144965925Y-87307007D01*
X144933012Y-87250000D01*
X145850000Y-87250000D01*
X145850000Y-86602172D01*
X145849999Y-86602155D01*
X145843598Y-86542627D01*
X145843596Y-86542620D01*
X145793354Y-86407913D01*
X145793350Y-86407906D01*
X145707190Y-86292812D01*
X145707187Y-86292809D01*
X145592093Y-86206649D01*
X145592088Y-86206646D01*
X145460528Y-86157577D01*
X145404595Y-86115705D01*
X145380178Y-86050241D01*
X145395030Y-85981968D01*
X145416175Y-85953720D01*
X145530104Y-85839792D01*
X145655051Y-85667816D01*
X145751557Y-85478412D01*
X145817246Y-85276243D01*
X145850500Y-85066287D01*
X145850500Y-84853713D01*
X145817246Y-84643757D01*
X145751557Y-84441588D01*
X145655051Y-84252184D01*
X145655049Y-84252181D01*
X145655048Y-84252179D01*
X145530109Y-84080213D01*
X145379786Y-83929890D01*
X145207820Y-83804951D01*
X145018414Y-83708444D01*
X145018413Y-83708443D01*
X145018412Y-83708443D01*
X144816243Y-83642754D01*
X144816241Y-83642753D01*
X144816240Y-83642753D01*
X144654957Y-83617208D01*
X144606287Y-83609500D01*
X144393713Y-83609500D01*
X144345042Y-83617208D01*
X144183760Y-83642753D01*
X143981585Y-83708444D01*
X143792179Y-83804951D01*
X143620213Y-83929890D01*
X143469890Y-84080213D01*
X143344951Y-84252179D01*
X143248444Y-84441585D01*
X143248443Y-84441587D01*
X143248443Y-84441588D01*
X143226856Y-84508026D01*
X143182753Y-84643760D01*
X143149500Y-84853713D01*
X125990285Y-84853713D01*
X125972284Y-84818385D01*
X125851971Y-84652786D01*
X125707217Y-84508032D01*
X125707210Y-84508026D01*
X125703001Y-84504968D01*
X125660335Y-84449638D01*
X125654357Y-84380024D01*
X125686964Y-84318230D01*
X125732553Y-84288470D01*
X125852331Y-84243796D01*
X125967546Y-84157546D01*
X126053796Y-84042331D01*
X126104091Y-83907483D01*
X126110500Y-83847873D01*
X126110499Y-82152128D01*
X126104091Y-82092517D01*
X126053796Y-81957669D01*
X126053795Y-81957668D01*
X126053793Y-81957664D01*
X125967547Y-81842455D01*
X125967544Y-81842452D01*
X125852335Y-81756206D01*
X125852328Y-81756202D01*
X125717482Y-81705908D01*
X125717483Y-81705908D01*
X125657883Y-81699501D01*
X125657881Y-81699500D01*
X125657873Y-81699500D01*
X125657864Y-81699500D01*
X124062129Y-81699500D01*
X124062123Y-81699501D01*
X124002516Y-81705908D01*
X123867671Y-81756202D01*
X123867664Y-81756206D01*
X123752455Y-81842452D01*
X123752452Y-81842455D01*
X123666206Y-81957664D01*
X123666202Y-81957671D01*
X123615908Y-82092517D01*
X123609501Y-82152116D01*
X123609501Y-82152123D01*
X123609500Y-82152135D01*
X123609500Y-83847870D01*
X123609501Y-83847876D01*
X123615908Y-83907483D01*
X123666202Y-84042328D01*
X123666206Y-84042335D01*
X123752452Y-84157544D01*
X123752455Y-84157547D01*
X123867664Y-84243793D01*
X123867673Y-84243798D01*
X123987444Y-84288469D01*
X124043378Y-84330339D01*
X124067796Y-84395804D01*
X124052945Y-84464077D01*
X124017004Y-84504964D01*
X124012789Y-84508026D01*
X124012782Y-84508032D01*
X123868028Y-84652786D01*
X123747715Y-84818386D01*
X123654781Y-85000776D01*
X123591522Y-85195465D01*
X123559500Y-85397648D01*
X114677836Y-85397648D01*
X114677836Y-78124500D01*
X114697521Y-78057461D01*
X114750325Y-78011706D01*
X114801836Y-78000500D01*
X121029220Y-78000500D01*
X121096259Y-78020185D01*
G37*
%TD.AperFunction*%
%TD*%
M02*
