M48
; DRILL file {KiCad 9.0.7} date 2026-03-08T23:07:24+0100
; FORMAT={-:-/ absolute / metric / decimal}
; #@! TF.CreationDate,2026-03-08T23:07:24+01:00
; #@! TF.GenerationSoftware,Kicad,Pcbnew,9.0.7
; #@! TF.FileFunction,Plated,1,2,PTH
FMAT,2
METRIC
; #@! TA.AperFunction,Plated,PTH,ViaDrill
T1C0.300
; #@! TA.AperFunction,Plated,PTH,ComponentDrill
T2C0.950
; #@! TA.AperFunction,Plated,PTH,ComponentDrill
T3C1.000
; #@! TA.AperFunction,Plated,PTH,ComponentDrill
T4C2.300
%
G90
G05
T1
X116.52Y-91.62
X116.53Y-80.71
X116.53Y-84.253
X116.54Y-87.46
X116.838Y-78.59
X117.058Y-94.14
X120.1Y-78.58
X120.237Y-94.16
X120.9Y-83.55
X121.06Y-88.17
X124.144Y-94.14
X124.26Y-78.6
X126.96Y-90.81
X127.467Y-78.59
X127.59Y-83.26
X127.6Y-86.01
X127.687Y-94.14
X128.79Y-87.49
X129.05Y-84.62
X131.01Y-78.59
X131.23Y-83.24
X131.23Y-94.14
X131.41Y-90.56
T2
X124.86Y-83.0
X124.86Y-85.5
X124.86Y-87.5
X124.86Y-90.0
T3
X131.0Y-85.46
X131.0Y-88.0
T4
X122.15Y-79.93
X122.15Y-93.07
M30
