%TF.GenerationSoftware,KiCad,Pcbnew,9.0.7*%
%TF.CreationDate,2026-01-26T12:43:18+01:00*%
%TF.ProjectId,Usb_a-to-pinhead,5573625f-612d-4746-9f2d-70696e686561,rev?*%
%TF.SameCoordinates,Original*%
%TF.FileFunction,Legend,Top*%
%TF.FilePolarity,Positive*%
%FSLAX46Y46*%
G04 Gerber Fmt 4.6, Leading zero omitted, Abs format (unit mm)*
G04 Created by KiCad (PCBNEW 9.0.7) date 2026-01-26 12:43:18*
%MOMM*%
%LPD*%
G01*
G04 APERTURE LIST*
%ADD10C,0.150000*%
%ADD11C,0.120000*%
%ADD12C,0.100000*%
G04 APERTURE END LIST*
D10*
X144166666Y-89334819D02*
X144166666Y-90049104D01*
X144166666Y-90049104D02*
X144119047Y-90191961D01*
X144119047Y-90191961D02*
X144023809Y-90287200D01*
X144023809Y-90287200D02*
X143880952Y-90334819D01*
X143880952Y-90334819D02*
X143785714Y-90334819D01*
X144595238Y-89430057D02*
X144642857Y-89382438D01*
X144642857Y-89382438D02*
X144738095Y-89334819D01*
X144738095Y-89334819D02*
X144976190Y-89334819D01*
X144976190Y-89334819D02*
X145071428Y-89382438D01*
X145071428Y-89382438D02*
X145119047Y-89430057D01*
X145119047Y-89430057D02*
X145166666Y-89525295D01*
X145166666Y-89525295D02*
X145166666Y-89620533D01*
X145166666Y-89620533D02*
X145119047Y-89763390D01*
X145119047Y-89763390D02*
X144547619Y-90334819D01*
X144547619Y-90334819D02*
X145166666Y-90334819D01*
X127504819Y-86833333D02*
X128219104Y-86833333D01*
X128219104Y-86833333D02*
X128361961Y-86880952D01*
X128361961Y-86880952D02*
X128457200Y-86976190D01*
X128457200Y-86976190D02*
X128504819Y-87119047D01*
X128504819Y-87119047D02*
X128504819Y-87214285D01*
X128504819Y-85833333D02*
X128504819Y-86404761D01*
X128504819Y-86119047D02*
X127504819Y-86119047D01*
X127504819Y-86119047D02*
X127647676Y-86214285D01*
X127647676Y-86214285D02*
X127742914Y-86309523D01*
X127742914Y-86309523D02*
X127790533Y-86404761D01*
D11*
%TO.C,J2*%
X143120000Y-86230000D02*
X143120000Y-83580000D01*
X145880000Y-83580000D02*
X143120000Y-83580000D01*
X145880000Y-86230000D02*
X143120000Y-86230000D01*
X145880000Y-86230000D02*
X145880000Y-83580000D01*
X145880000Y-87500000D02*
X145880000Y-88880000D01*
X145880000Y-88880000D02*
X144500000Y-88880000D01*
%TO.C,J1*%
X111760000Y-79190000D02*
X111760000Y-93810000D01*
X111760000Y-93810000D02*
X112280000Y-93810000D01*
X112280000Y-79190000D02*
X111760000Y-79190000D01*
X112280000Y-79840000D02*
X112280000Y-79190000D01*
X112280000Y-79840000D02*
X120390000Y-79840000D01*
X112280000Y-93810000D02*
X112280000Y-93160000D01*
X120390000Y-93160000D02*
X112280000Y-93160000D01*
X127240000Y-79840000D02*
X123910000Y-79840000D01*
X127240000Y-79840000D02*
X127240000Y-93160000D01*
X127240000Y-93160000D02*
X123910000Y-93160000D01*
X127460000Y-82100000D02*
X127460000Y-83900000D01*
D12*
%TO.C,D1*%
X134886646Y-84344191D02*
G75*
G02*
X134786646Y-84344191I-50000J0D01*
G01*
X134786646Y-84344191D02*
G75*
G02*
X134886646Y-84344191I50000J0D01*
G01*
%TD*%
M02*
