%TF.GenerationSoftware,KiCad,Pcbnew,9.0.7*%
%TF.CreationDate,2026-03-08T23:07:21+01:00*%
%TF.ProjectId,Usb_a-to-pinhead,5573625f-612d-4746-9f2d-70696e686561,rev?*%
%TF.SameCoordinates,Original*%
%TF.FileFunction,Legend,Top*%
%TF.FilePolarity,Positive*%
%FSLAX46Y46*%
G04 Gerber Fmt 4.6, Leading zero omitted, Abs format (unit mm)*
G04 Created by KiCad (PCBNEW 9.0.7) date 2026-03-08 23:07:21*
%MOMM*%
%LPD*%
G01*
G04 APERTURE LIST*
%ADD10C,0.120000*%
%ADD11C,0.100000*%
G04 APERTURE END LIST*
D10*
%TO.C,J2*%
X129620000Y-86730000D02*
X129620000Y-84080000D01*
X132380000Y-84080000D02*
X129620000Y-84080000D01*
X132380000Y-86730000D02*
X129620000Y-86730000D01*
X132380000Y-86730000D02*
X132380000Y-84080000D01*
X132380000Y-88000000D02*
X132380000Y-89380000D01*
X132380000Y-89380000D02*
X131000000Y-89380000D01*
%TO.C,J1*%
X111760000Y-79190000D02*
X111760000Y-93810000D01*
X111760000Y-93810000D02*
X112280000Y-93810000D01*
X112280000Y-79190000D02*
X111760000Y-79190000D01*
X112280000Y-79840000D02*
X112280000Y-79190000D01*
X112280000Y-79840000D02*
X120390000Y-79840000D01*
X112280000Y-93810000D02*
X112280000Y-93160000D01*
X120390000Y-93160000D02*
X112280000Y-93160000D01*
X127240000Y-79840000D02*
X123910000Y-79840000D01*
X127240000Y-79840000D02*
X127240000Y-93160000D01*
X127240000Y-93160000D02*
X123910000Y-93160000D01*
X127460000Y-82100000D02*
X127460000Y-83900000D01*
D11*
%TO.C,D1*%
X130736480Y-83196194D02*
G75*
G02*
X130636480Y-83196194I-50000J0D01*
G01*
X130636480Y-83196194D02*
G75*
G02*
X130736480Y-83196194I50000J0D01*
G01*
D10*
%TO.C,C1*%
X128370000Y-85912164D02*
X128370000Y-86127836D01*
X129090000Y-85912164D02*
X129090000Y-86127836D01*
%TD*%
M02*
